<?xml version="1.0" standalone="no"?>
<!DOCTYPE svg PUBLIC "-//W3C//DTD SVG 20010904//EN"
 "http://www.w3.org/TR/2001/REC-SVG-20010904/DTD/svg10.dtd">
<svg version="1.0" xmlns="http://www.w3.org/2000/svg"
 width="188.000000pt" height="172.000000pt" viewBox="0 0 188.000000 172.000000"
 preserveAspectRatio="xMidYMid meet">

<g transform="translate(0.000000,172.000000) scale(0.100000,-0.100000)"
fill="#000000" stroke="none">
<path d="M539 1202 c-105 -107 -188 -201 -209 -237 -32 -54 -35 -66 -35 -140
0 -92 22 -148 81 -209 70 -72 179 -102 281 -77 65 17 115 57 352 284 243 234
280 257 372 226 107 -36 161 -177 108 -286 -22 -46 -337 -369 -404 -414 -19
-13 -35 -27 -35 -31 0 -5 33 -8 73 -8 l74 0 179 183 c193 197 232 251 241 340
9 90 -18 161 -85 227 -66 64 -129 90 -213 90 -116 0 -144 -19 -429 -294 -214
-206 -239 -226 -295 -226 -141 0 -232 119 -191 252 9 32 35 71 82 124 85 95
317 311 363 338 30 17 32 21 15 27 -10 4 -49 8 -85 8 l-66 1 -174 -178z"/>
<path d="M1093 1360 c-18 -4 -43 -14 -55 -22 -65 -43 -454 -429 -501 -497 -20
-30 -7 -61 27 -61 35 0 100 55 338 289 l214 210 92 -6 c59 -4 92 -2 92 4 0 26
-45 64 -92 78 -56 16 -67 17 -115 5z"/>
<path d="M1092 690 c-129 -126 -252 -241 -275 -257 -36 -25 -49 -28 -119 -28
-90 0 -97 -9 -42 -51 55 -42 137 -46 200 -9 45 27 477 442 516 497 l19 28 -25
25 c-14 14 -29 25 -33 24 -4 0 -113 -103 -241 -229z"/>
</g>
</svg>
